<?xml version="1.0" encoding="utf-8"?>
<!-- Generator: Adobe Illustrator 16.0.0, SVG Export Plug-In . SVG Version: 6.00 Build 0)  -->
<!DOCTYPE svg PUBLIC "-//W3C//DTD SVG 1.1//EN" "http://www.w3.org/Graphics/SVG/1.1/DTD/svg11.dtd">
<svg version="1.1" xmlns="http://www.w3.org/2000/svg" xmlns:xlink="http://www.w3.org/1999/xlink" x="0px" y="0px" width="460px"
	 height="148.182px" viewBox="0 0 460 148.182" enable-background="new 0 0 460 148.182" xml:space="preserve">
<g id="Layer_1">
</g>
<g id="Layer_2">
	<g>
		<path fill="#FFFFFF" d="M264.506,64.814c-1.653,2.977-2.48,6.918-2.48,11.824c0,8.93,2.865,13.395,8.599,13.395
			c2.425,0,4.714-0.729,6.258-2.191c1.542-1.46,2.619-3.128,2.619-5.002V61.425c-2-0.716-3.97-1.075-6.67-1.075
			C269.137,60.35,266.16,61.838,264.506,64.814z"/>
		<path fill="#FFFFFF" d="M279.242,91.19v0.12c0.05-0.071,0.106-0.129,0.155-0.202L279.242,91.19z"/>
		<path fill="#FFFFFF" d="M452.967,44.042c-2.573-2.572-5.539-4.388-8.678-5.525c-0.152-0.29-0.285-0.592-0.45-0.874
			c-4.591-7.839-12.405-11.68-20.572-11.701c-6.04-6.828-15.723-10.786-24.536-7.502c-6.2,2.312-12.334,4.756-18.405,7.323
			c-6.842-3.816-15.304-3.562-23.253-0.523c-5.696-8.196-15.68-13.49-26.148-10.028c-5.21,1.725-10.23,3.774-15.117,6.079
			C313.106,8.224,299.778-2.321,285.72,2.295c-14.126,4.641-27.024,11.418-39.366,19.175c-3.615-3.654-8.098-5.764-12.905-6.461
			c-4.367-10.087-15.39-17.317-28.451-14.328c-24.92,5.704-47.54,17.484-68.446,31.95c-3.419-11.693-16.5-20.056-30.035-17.42
			C88.812,18.66,72.086,26.155,56.958,35.88c-7.941,5.104-15.366,10.987-22.82,16.763c-3.298,2.555-6.553,5.168-9.814,7.772
			c-1.982,1.583-3.966,3.166-5.952,4.746c0.292-0.233-6.308,4.927-3.206,2.54C5.212,75.358-0.276,87.189,5.568,99.09
			c-6.131,7.965-7.629,18.509-2.318,27.574c6.391,10.91,22.11,15.98,33.133,8.689c14.03-9.282,28.003-17.255,42.152-24.373
			c0.195,0.386,0.376,0.782,0.594,1.154c7.082,12.089,21.218,14.37,33.133,8.688c1.541-0.735,3.061-1.511,4.571-2.301
			c0.862,0.556,1.759,1.059,2.682,1.508c2.385,13.192,16.989,23.665,30.552,19.378c17.552-5.548,33.84-14.03,49.959-22.775
			c0.064,0.114,0.118,0.229,0.186,0.345c5.566,9.502,16.788,13.814,27.349,11.13c8.555-2.175,16.73-5.419,24.66-9.227
			c2.215,15.557,19.767,27.497,36.015,18.087c2.929-1.696,5.825-3.442,8.696-5.227c5.087,2.373,10.897,3.101,16.194,1.209
			c7.748-2.767,15.188-5.848,22.484-9.03c0.191,6.477,2.988,13.09,7.231,17.333c9.848,9.849,24.256,8.606,34.247,0
			c24.911-21.459,51.732-40.605,75.879-62.964C462.654,69.32,462.028,53.104,452.967,44.042z M82.604,91.356
			c-3.693,3.914-8.421,5.869-14.18,5.869c-5.761,0-10.267-1.86-13.519-5.581c-3.253-3.721-4.879-9.218-4.879-16.494
			c0-4.079,0.606-7.62,1.819-10.625c1.212-3.003,2.838-5.305,4.878-6.903c3.913-2.978,8.24-4.466,12.981-4.466
			c3.307,0,6.104,0.538,8.393,1.611c2.287,1.075,4.079,2.316,5.374,3.721c1.295,1.407,2.398,3.447,3.308,6.119
			c0.91,2.674,1.364,5.83,1.364,9.468C88.144,81.683,86.296,87.443,82.604,91.356z M132.501,60.846l-2.335,0.339
			c-1.104,0.11-1.576,1.148-1.96,2.361l-10.709,33.539h-12.651L93.27,63.628c-0.276-0.771-0.565-1.57-0.868-1.845
			c-0.304-0.277-0.8-0.58-1.516-0.636l-2.385-0.302v-5.761h20v5.927l-5.343,0.558l8.22,27.516h0.166l8.762-27.516l-3.805-0.558
			v-5.927h16V60.846z M161.195,95.49c-2.619,1.047-5.61,1.572-8.972,1.572c-6.726,0-11.658-1.861-14.801-5.582
			c-3.141-3.721-4.712-8.833-4.712-15.339c0-6.503,1.791-11.96,5.375-16.371c3.582-4.408,8.599-6.614,15.048-6.614
			c4.134,0,7.413,1.006,9.839,3.018c2.425,2.014,3.638,4.838,3.638,8.475c0,2.427-0.524,4.562-1.571,6.409
			c-1.047,1.848-2.344,3.293-3.886,4.34c-1.543,1.049-3.418,1.901-5.622,2.564c-3.694,1.104-7.855,1.653-12.485,1.653
			c0.166,2.922,1.075,5.278,2.729,7.069s4.188,2.687,7.607,2.687c3.417,0,6.834-1.211,10.253-3.637l3.142,6.697
			C165.672,93.423,163.812,94.443,161.195,95.49z M203.501,67.296l-8,0.578V64.07c0-1.103-0.087-1.79-0.638-2.067
			c-0.607-0.274-1.256-0.413-2.138-0.413c-2.206,0-3.86,0.785-5.266,2.357c-1.406,1.57-1.959,3.569-1.959,5.994v19.183l7,0.331v7.63
			h-21v-7.383l2.144-0.247c0.826-0.11,1.162-0.344,1.548-0.703c0.385-0.358,0.308-1.034,0.308-2.026V63.822
			c0-0.881-0.175-1.501-0.478-1.86c-0.303-0.357-1.06-0.564-1.831-0.619l-3.691-0.249v-6.009h14v5.514
			c2-2.15,2.729-3.928,4.825-5.334c2.094-1.405,4.569-2.108,7.298-2.108s5.877,0.607,7.877,1.82V67.296z M300.72,38.48
			c1.157-1.185,2.672-1.779,4.547-1.779c1.875,0,3.404,0.595,4.59,1.779c1.186,1.186,1.778,2.659,1.778,4.424
			c0,1.764-0.593,3.211-1.778,4.34c-1.186,1.131-2.715,1.695-4.59,1.695c-1.875,0-3.39-0.564-4.547-1.695
			c-1.157-1.129-1.736-2.576-1.736-4.34C298.984,41.14,299.563,39.666,300.72,38.48z M242.678,91.272
			c-3.252,3.97-7.213,5.953-12.78,5.953c-3.306,0-7.397-0.799-8.397-2.396v11.41l6,0.331v6.515h-21v-6.267l2.461-0.248
			c0.827-0.111,1.503-0.345,1.89-0.703c0.385-0.359,0.649-1.034,0.649-2.025v-40.02c0-0.937-0.356-1.584-0.659-1.942
			c-0.304-0.357-1.469-0.537-2.241-0.537l-4.101-0.249v-6.009h15v4.686c2-1.654,2.493-3.169,4.808-4.547s5.078-2.067,8.275-2.067
			c9.976,0,14.969,7.001,14.969,21.002C247.553,81.599,245.929,87.305,242.678,91.272z M293.501,97.085h-14v-5.774
			c-3,3.826-6.39,5.752-11.099,5.752c-5.623,0-9.749-1.792-12.449-5.375c-2.701-3.584-4.033-8.488-4.033-14.718
			c0-7.497,1.828-13.34,5.466-17.528c3.638-4.189,9.108-6.285,16.385-6.285c4.684,0,10.73,0.965,14.73,2.894v30.758
			c0,0.883,0.143,1.488,0.446,1.819s0.988,0.525,1.761,0.579l2.793,0.165V97.085z M316.501,97.085h-21v-7.383l3.165-0.247
			c1.599-0.166,2.835-1.047,2.835-2.647V63.822c0-0.937-0.254-1.57-0.555-1.901c-0.304-0.331-0.811-0.496-1.582-0.496l-2.863-0.166
			v-6.174h15v34.039l5,0.247V97.085z M363.501,97.085h-20v-7.383l2.795-0.247c0.826-0.11,1.336-0.344,1.722-0.703
			c0.385-0.358,0.483-1.034,0.483-2.026V69.693c0-3.031-0.341-5.278-1.277-6.739c-0.938-1.46-2.649-2.19-5.267-2.19
			c-2.619,0-4.15,0.826-5.692,2.48c-1.543,1.653-1.764,3.61-1.764,5.869v20.011l4,0.247v7.714h-21v-7.383l3.227-0.247
			c0.826-0.11,1.121-0.344,1.507-0.703c0.385-0.358,0.266-1.034,0.266-2.026V63.822c0-1.653-0.42-2.507-1.797-2.563l-3.203-0.247
			v-5.927h15v4.686c2-2.038,3.112-3.649,5.483-4.837c2.37-1.185,4.821-1.777,7.578-1.777c4.189,0,7.323,1.198,9.611,3.597
			s3.328,5.994,3.328,10.79v21.581l5,0.247V97.085z M380.344,97.144c-2.481,0-4.577-0.318-6.284-0.95
			c-1.709-0.634-2.977-1.335-3.803-2.108c-0.828-0.772-1.462-1.902-1.903-3.391s-0.202-2.658-0.257-3.515
			c-0.056-0.853,0.404-2.107,0.404-3.762V61.085h-6.845l0.828-5.908c2.59-0.219,4.547-1.353,5.87-2.979
			c1.325-1.624,2.535-4.112,3.639-7.112h5.508v10h10.863l-0.828,6h-10.035v22.002c0,2.427,0.373,4.121,1.256,5.086
			c0.881,0.965,2.211,1.447,4.06,1.447c1.846,0,3.689-0.58,5.564-1.737l2.472,6.366C388.095,96.179,384.588,97.144,380.344,97.144z
			 M424.501,67.296l-6,0.578V64.07c0-1.103-0.794-1.79-1.344-2.067c-0.607-0.274-1.609-0.413-2.491-0.413
			c-2.204,0-4.33,0.785-5.736,2.357c-1.405,1.57-2.429,3.569-2.429,5.994v19.183l8,0.331v7.63h-22v-7.383l2.437-0.247
			c0.828-0.11,1.516-0.344,1.902-0.703c0.385-0.358,0.661-1.034,0.661-2.026V63.822c0-0.881-0.381-1.501-0.682-1.86
			c-0.304-0.357-0.458-0.564-1.228-0.619l-3.09-0.249v-6.009h13v5.514c1-2.15,2.524-3.928,4.619-5.334
			c2.095-1.405,4.174-2.108,6.901-2.108c2.729,0,5.479,0.607,7.479,1.82V67.296z"/>
		<path fill="#FFFFFF" d="M69.251,60.433c-3.171,0-5.499,1.213-6.987,3.638c-1.488,2.426-2.232,5.733-2.232,9.923
			c0,7.771,1.432,12.65,4.299,14.634c1.268,0.883,2.839,1.323,4.713,1.323c6.007,0,9.012-4.85,9.012-14.553
			c0-4.904-0.675-8.625-2.025-11.162C74.679,61.702,72.42,60.433,69.251,60.433z"/>
		<path fill="#FFFFFF" d="M228.953,61.177c-2.315,0-3.836,0.703-5.462,2.108c-1.627,1.406-1.99,3.074-1.99,5.002v19.018
			c1,1.378,4.194,2.066,7.199,2.066c3.003,0,5.038-1.376,6.555-4.134c1.515-2.756,2.162-6.172,2.162-10.253
			C237.417,65.779,234.52,61.177,228.953,61.177z"/>
		<path fill="#FFFFFF" d="M154.952,69.651c1.708-1.239,2.562-2.714,2.562-4.423c0-3.362-1.654-5.043-4.96-5.043
			c-3.088,0-5.458,1.227-7.111,3.678c-1.654,2.453-2.563,5.389-2.729,8.807c2.425-0.055,4.643-0.262,6.657-0.621
			C151.383,71.691,153.242,70.892,154.952,69.651z"/>
	</g>
</g>
</svg>
