<?xml version="1.0" encoding="utf-8"?>
<!-- Generator: Adobe Illustrator 16.0.0, SVG Export Plug-In . SVG Version: 6.00 Build 0)  -->
<!DOCTYPE svg PUBLIC "-//W3C//DTD SVG 1.1//EN" "http://www.w3.org/Graphics/SVG/1.1/DTD/svg11.dtd">
<svg version="1.1" xmlns="http://www.w3.org/2000/svg" xmlns:xlink="http://www.w3.org/1999/xlink" x="0px" y="0px"
	 width="284.927px" height="91.785px" viewBox="0 0 284.927 91.785" enable-background="new 0 0 284.927 91.785"
	 xml:space="preserve">
<g id="Layer_1">
</g>
<g id="Layer_2">
	<g>
		<path fill="#FFFFFF" d="M95.979,43.143c1.058-0.768,1.587-1.681,1.587-2.739c0-2.083-1.024-3.124-3.073-3.124
			c-1.913,0-3.38,0.76-4.404,2.278c-1.024,1.52-1.588,3.338-1.69,5.455c1.502-0.034,2.876-0.162,4.123-0.385
			C93.768,44.406,94.919,43.911,95.979,43.143z"/>
		<path fill="#FFFFFF" d="M163.837,40.146c-1.024,1.844-1.536,4.285-1.536,7.324c0,5.531,1.775,8.297,5.326,8.297
			c1.502,0,2.84-0.452,3.796-1.357c0.955-0.904,1.542-1.938,1.542-3.099V38.047c-1-0.443-2.379-0.666-4.051-0.666
			C166.625,37.381,164.861,38.303,163.837,40.146z"/>
		<path fill="#FFFFFF" d="M280.571,27.28c-1.594-1.594-3.431-2.718-5.375-3.423c-0.094-0.18-0.176-0.366-0.279-0.541
			c-2.844-4.855-7.684-7.234-12.742-7.248c-3.741-4.229-9.739-6.681-15.198-4.646c-3.84,1.432-7.64,2.945-11.4,4.536
			c-4.238-2.364-9.479-2.206-14.403-0.324c-3.528-5.077-9.712-8.356-16.196-6.212c-3.227,1.068-6.336,2.338-9.363,3.766
			c-1.673-8.094-9.929-14.625-18.637-11.766c-8.75,2.874-16.739,7.072-24.384,11.877c-2.239-2.264-5.016-3.57-7.993-4.002
			c-2.705-6.248-9.533-10.727-17.623-8.875c-15.436,3.533-29.446,10.83-42.396,19.79C82.463,12.969,74.36,7.789,65.977,9.422
			c-10.966,2.137-21.326,6.779-30.697,12.803c-4.919,3.161-9.518,6.806-14.135,10.383c-2.043,1.582-4.059,3.201-6.079,4.814
			c-1.228,0.98-2.457,1.961-3.687,2.939c0.181-0.145-3.907,3.052-1.985,1.573c-6.166,4.743-9.565,12.071-5.945,19.442
			c-3.797,4.934-4.726,11.465-1.436,17.08c3.958,6.758,13.695,9.898,20.523,5.382c8.69-5.749,17.345-10.688,26.109-15.097
			c0.121,0.239,0.233,0.484,0.368,0.715c4.387,7.488,13.143,8.901,20.523,5.382c0.955-0.455,1.896-0.936,2.832-1.425
			c0.534,0.344,1.089,0.655,1.661,0.934c1.478,8.172,10.523,14.658,18.924,12.003c10.872-3.437,20.961-8.69,30.945-14.107
			c0.04,0.071,0.073,0.143,0.115,0.214c3.448,5.886,10.399,8.557,16.94,6.894c5.299-1.347,10.363-3.356,15.275-5.715
			c1.372,9.636,12.244,17.032,22.308,11.203c1.814-1.051,3.608-2.132,5.386-3.237c3.151,1.47,6.75,1.921,10.031,0.749
			c4.799-1.714,9.407-3.622,13.927-5.594c0.119,4.012,1.851,8.108,4.479,10.736c6.1,6.101,15.024,5.331,21.213,0
			c15.43-13.292,32.043-25.151,47-39C286.571,42.938,286.184,32.893,280.571,27.28z M51.166,56.587
			c-2.288,2.425-5.216,3.636-8.783,3.636c-3.568,0-6.359-1.152-8.374-3.457c-2.015-2.305-3.022-5.71-3.022-10.217
			c0-2.526,0.375-4.72,1.127-6.581c0.75-1.86,1.758-3.286,3.021-4.276c2.424-1.844,5.104-2.766,8.041-2.766
			c2.048,0,3.781,0.333,5.198,0.998c1.417,0.666,2.526,1.435,3.329,2.305c0.802,0.871,1.485,2.135,2.049,3.79
			c0.563,1.656,0.845,3.611,0.845,5.864C54.597,50.595,53.453,54.163,51.166,56.587z M79.385,39.236l-6.606,20.65h-7.836l-7.17-20.6
			c-0.171-0.478-0.35-0.91-0.538-1.08c-0.188-0.172-0.422-0.328-0.866-0.362l-1.404-0.156v-3.802h12v3.904l-3.188,0.199
			l5.212,16.896h0.103L74.42,37.99l-2.455-0.199v-3.904h10v3.802l-1.393,0.21C79.889,37.967,79.623,38.485,79.385,39.236z
			 M99.845,59.147c-1.622,0.648-3.475,0.974-5.557,0.974c-4.166,0-7.221-1.152-9.167-3.457c-1.946-2.305-2.919-5.472-2.919-9.501
			c0-4.028,1.109-7.408,3.329-10.141c2.219-2.73,5.326-4.097,9.321-4.097c2.561,0,4.592,0.623,6.095,1.869
			c1.502,1.247,2.253,2.996,2.253,5.249c0,1.503-0.325,2.826-0.973,3.97c-0.649,1.145-1.452,2.04-2.407,2.688
			c-0.956,0.649-2.117,1.178-3.482,1.588c-2.288,0.684-4.865,1.024-7.733,1.024c0.103,1.81,0.666,3.27,1.69,4.379
			s2.594,1.664,4.712,1.664c2.117,0,4.233-0.75,6.351-2.253l1.946,4.148C102.619,57.867,101.466,58.499,99.845,59.147z
			 M125.965,41.684l-5,0.358v-2.356c0-0.683,0.011-1.108-0.33-1.28c-0.376-0.17-0.746-0.256-1.292-0.256
			c-1.366,0-2.343,0.486-3.213,1.46c-0.871,0.973-1.165,2.211-1.165,3.713v11.882l4,0.205v4.478h-13v-4.324l1.46-0.153
			c0.512-0.068,0.915-0.213,1.154-0.436c0.238-0.222,0.386-0.641,0.386-1.255V39.532c0-0.546-0.237-0.93-0.425-1.152
			c-0.188-0.222-0.733-0.35-1.211-0.384l-2.364-0.154v-3.955h9v3.648c1-1.332,1.539-2.433,2.837-3.304
			c1.297-0.87,2.712-1.306,4.402-1.306c1.69,0,3.761,0.376,4.761,1.127V41.684z M150.316,56.535
			c-2.015,2.459-4.585,3.688-8.033,3.688c-2.048,0-4.318-0.495-5.318-1.484v7.067l4,0.205v3.876h-13v-3.723l1.496-0.153
			c0.512-0.069,0.897-0.214,1.136-0.436c0.238-0.223,0.368-0.641,0.368-1.255V39.532c0-0.58-0.2-0.981-0.388-1.203
			c-0.188-0.222-0.752-0.333-1.23-0.333l-2.382-0.154v-3.955h9v3.136c1-1.024,1.542-1.963,2.976-2.816s3.144-1.28,5.125-1.28
			c6.179,0,9.271,4.336,9.271,13.009C153.337,50.543,152.331,54.077,150.316,56.535z M181.965,59.887h-9v-3.402l0.096-0.051
			c-1.707,2.458-3.92,3.688-6.891,3.688c-3.482,0-5.998-1.109-7.67-3.329c-1.673-2.22-2.478-5.258-2.478-9.116
			c0-4.644,1.142-8.263,3.396-10.857s5.779-3.893,10.286-3.893c2.901,0,6.262,0.598,9.262,1.792V53.77
			c0,0.547-0.044,0.922,0.144,1.127s0.63,0.325,1.108,0.358l1.748,0.103V59.887z M186.269,23.835
			c0.717-0.733,1.655-1.102,2.816-1.102s2.108,0.368,2.843,1.102c0.734,0.734,1.102,1.647,1.102,2.74s-0.367,1.989-1.102,2.688
			c-0.734,0.7-1.682,1.05-2.843,1.05s-2.1-0.35-2.816-1.05c-0.717-0.699-1.075-1.596-1.075-2.688S185.552,24.569,186.269,23.835z
			 M195.965,59.887h-13v-4.324l2.102-0.153c0.99-0.103,1.898-0.648,1.898-1.64V39.532c0-0.58-0.264-0.973-0.45-1.178
			c-0.188-0.205-0.401-0.308-0.878-0.308l-1.671-0.103v-4.058h9v21.317l3,0.153V59.887z M224.965,59.887h-12v-4.324l1.632-0.153
			c0.512-0.068,0.829-0.213,1.068-0.436c0.238-0.222,0.3-0.641,0.3-1.255v-10.55c0-1.878-0.261-3.27-0.841-4.175
			c-0.581-0.904-1.667-1.356-3.288-1.356c-1.622,0-2.697,0.512-3.652,1.536c-0.956,1.024-1.219,2.236-1.219,3.636v12.395l3,0.153
			v4.529h-13v-4.324l1.848-0.153c0.512-0.068,0.721-0.213,0.96-0.436c0.238-0.222,0.192-0.641,0.192-1.255V39.532
			c0-1.024-0.212-1.553-1.064-1.588l-1.936-0.153v-3.904h9v3.136c1-1.263,1.922-2.261,3.391-2.996
			c1.468-0.733,2.983-1.101,4.691-1.101c2.595,0,4.488,0.742,5.905,2.228s2.013,3.713,2.013,6.684v13.367l3,0.153V59.887z
			 M235.588,60.172c-1.537,0-2.835-0.197-3.893-0.589c-1.059-0.393-1.844-0.827-2.355-1.306c-0.513-0.479-0.905-1.179-1.179-2.101
			s-0.269-1.646-0.303-2.177c-0.034-0.528,0.107-1.306,0.107-2.33V37.887h-3.952l0.513-3.685c1.604-0.136,2.816-0.87,3.636-1.878
			c0.82-1.006,1.57-2.438,2.254-4.438h3.55v6h6.591l-0.513,4h-6.078v13.578c0,1.503,0.162,2.553,0.709,3.15
			c0.546,0.598,1.335,0.896,2.48,0.896c1.144,0,2.268-0.359,3.429-1.076l1.522,3.943C240.397,59.574,238.217,60.172,235.588,60.172z
			 M262.965,41.684l-4,0.358v-2.356c0-0.683-0.363-1.108-0.704-1.28c-0.376-0.17-0.932-0.256-1.478-0.256
			c-1.365,0-2.562,0.486-3.434,1.46c-0.87,0.973-1.385,2.211-1.385,3.713v11.882l5,0.205v4.478h-14v-4.324l1.586-0.153
			c0.513-0.068,0.852-0.213,1.091-0.436c0.238-0.222,0.323-0.641,0.323-1.255V39.532c0-0.546-0.111-0.93-0.297-1.152
			c-0.188-0.222-0.297-0.35-0.775-0.384l-1.928-0.154v-3.955h8v3.648c1-1.332,1.666-2.433,2.964-3.304
			c1.298-0.87,2.649-1.306,4.339-1.306c1.69,0,3.697,0.376,4.697,1.127V41.684z"/>
		<path fill="#FFFFFF" d="M42.895,37.433c-1.964,0-3.406,0.751-4.328,2.253c-0.922,1.503-1.383,3.552-1.383,6.146
			c0,4.813,0.887,7.836,2.663,9.064c0.785,0.547,1.758,0.819,2.919,0.819c3.721,0,5.582-3.004,5.582-9.014
			c0-3.038-0.418-5.343-1.254-6.914C46.257,38.219,44.857,37.433,42.895,37.433z"/>
		<path fill="#FFFFFF" d="M141.815,37.894c-1.434,0-2.494,0.436-3.5,1.306c-1.008,0.871-1.35,1.904-1.35,3.099v11.779
			c1,0.854,2.715,1.28,4.576,1.28c1.86,0,3.179-0.853,4.119-2.561c0.938-1.707,1.369-3.823,1.369-6.351
			C147.028,40.744,145.263,37.894,141.815,37.894z"/>
	</g>
</g>
</svg>
